<svg width="25" height="24" viewBox="0 0 25 24" fill="none" xmlns="http://www.w3.org/2000/svg">
<path fill-rule="evenodd" clip-rule="evenodd" d="M13.7133 3.80027C13.3297 3.32076 12.5856 3.37081 12.2696 3.89737L9.55922 8.41475C9.06223 9.24307 8.16709 9.74989 7.20112 9.74989H4.5835V19.2499H16.8059C17.3696 19.2499 17.8635 18.8726 18.0119 18.3288L19.9209 11.3288C20.1378 10.5336 19.5392 9.74989 18.715 9.74989H14.1399C13.2356 9.74989 12.587 8.87815 12.8468 8.01197L13.8693 4.60394C13.9524 4.3267 13.8941 4.02629 13.7133 3.80027ZM10.9834 3.12563C11.8372 1.70272 13.848 1.56747 14.8846 2.86323C15.3732 3.474 15.5308 4.28578 15.306 5.03496L14.3415 8.24989H18.715C20.5283 8.24989 21.8452 9.97408 21.3681 11.7235L19.459 18.7235C19.1327 19.9199 18.046 20.7499 16.8059 20.7499H4.4335C3.68791 20.7499 3.0835 20.1455 3.0835 19.3999V9.59989C3.0835 8.85431 3.68791 8.24989 4.4335 8.24989H7.20112C7.64019 8.24989 8.04708 8.01952 8.27298 7.64301L10.9834 3.12563Z" fill="#33836E"/>
<path fill-rule="evenodd" clip-rule="evenodd" d="M7.3335 20.75C6.91928 20.75 6.5835 20.4142 6.5835 20L6.5835 9C6.5835 8.58579 6.91928 8.25 7.3335 8.25C7.74771 8.25 8.0835 8.58579 8.0835 9V20C8.0835 20.4142 7.74771 20.75 7.3335 20.75Z" fill="#33836E"/>
</svg>
