<svg width="152" height="46" viewBox="0 0 152 46" fill="none" xmlns="http://www.w3.org/2000/svg">
<rect x="3" y="4" width="148" height="38" stroke="black" stroke-width="2"/>
<rect x="4" y="4" width="39" height="39" fill="black"/>
<path d="M46.3489 31V16.832H48.7469V29.152H56.0069V31H46.3489ZM61.1635 31.22C60.5035 31.22 59.8875 31.1027 59.3155 30.868C58.7582 30.6333 58.3108 30.2813 57.9735 29.812C57.6362 29.328 57.4675 28.734 57.4675 28.03C57.4675 27.0327 57.8048 26.2333 58.4795 25.632C59.1688 25.016 60.2248 24.708 61.6475 24.708H64.9915V24.246C64.9915 23.7473 64.9108 23.3513 64.7495 23.058C64.6028 22.7647 64.3242 22.552 63.9135 22.42C63.5175 22.288 62.9308 22.222 62.1535 22.222C60.9215 22.222 59.7702 22.4053 58.6995 22.772V20.99C59.1688 20.7993 59.7408 20.6453 60.4155 20.528C61.0902 20.4107 61.8162 20.352 62.5935 20.352C64.1188 20.352 65.2775 20.66 66.0695 21.276C66.8762 21.892 67.2795 22.8967 67.2795 24.29V31H65.2335L65.0795 29.944C64.6542 30.3547 64.1262 30.67 63.4955 30.89C62.8795 31.11 62.1022 31.22 61.1635 31.22ZM61.8015 29.504C62.5202 29.504 63.1435 29.3867 63.6715 29.152C64.2142 28.9027 64.6542 28.5727 64.9915 28.162V26.336H61.6915C60.9875 26.336 60.4742 26.4753 60.1515 26.754C59.8435 27.018 59.6895 27.4287 59.6895 27.986C59.6895 28.5287 59.8728 28.9173 60.2395 29.152C60.6062 29.3867 61.1268 29.504 61.8015 29.504ZM71.3045 34.872C70.5125 34.872 69.8378 34.7693 69.2805 34.564V32.782C69.5298 32.87 69.7571 32.9287 69.9625 32.958C70.1825 32.9873 70.4025 33.002 70.6225 33.002C71.0771 33.002 71.4438 32.9287 71.7225 32.782C72.0011 32.6353 72.2431 32.4007 72.4485 32.078C72.6685 31.77 72.9031 31.3667 73.1525 30.868L68.5105 20.572H70.9965L74.3405 28.316L77.7285 20.572H80.1925L75.9465 30.406C75.5798 31.286 75.1838 32.056 74.7585 32.716C74.3478 33.3907 73.8638 33.9187 73.3065 34.3C72.7638 34.6813 72.0965 34.872 71.3045 34.872ZM83.8503 31L81.1003 20.572H83.4983L85.3023 28.162L87.3483 21.848V20.572H89.1743L91.4403 28.162L93.2443 20.572H95.6203L92.8923 31H90.6263L88.4043 24.18L86.1383 31H83.8503ZM102.246 31.22C100.427 31.22 99.0194 30.7727 98.0221 29.878C97.0247 28.9833 96.5261 27.612 96.5261 25.764C96.5261 24.092 96.9514 22.772 97.8021 21.804C98.6527 20.836 99.9434 20.352 101.674 20.352C103.258 20.352 104.446 20.77 105.238 21.606C106.045 22.4273 106.448 23.4907 106.448 24.796V26.732H98.8141C98.9314 27.744 99.2981 28.4407 99.9141 28.822C100.53 29.2033 101.469 29.394 102.73 29.394C103.258 29.394 103.801 29.3427 104.358 29.24C104.915 29.1373 105.399 29.0053 105.81 28.844V30.604C105.341 30.8093 104.798 30.9633 104.182 31.066C103.581 31.1687 102.935 31.22 102.246 31.22ZM98.8141 25.17H104.336V24.444C104.336 23.7253 104.138 23.168 103.742 22.772C103.346 22.3613 102.679 22.156 101.74 22.156C100.625 22.156 99.8554 22.398 99.4301 22.882C99.0194 23.366 98.8141 24.1287 98.8141 25.17ZM108.782 31V20.572H110.982L111.114 21.782C111.613 21.4593 112.207 21.166 112.896 20.902C113.586 20.638 114.268 20.4547 114.942 20.352V22.178C114.532 22.2513 114.084 22.3613 113.6 22.508C113.131 22.64 112.684 22.794 112.258 22.97C111.833 23.1313 111.474 23.3 111.18 23.476V31H108.782ZM120.057 31.22C119.339 31.22 118.649 31.1687 117.989 31.066C117.344 30.9633 116.809 30.8387 116.383 30.692V28.668C116.882 28.8587 117.432 29.0053 118.033 29.108C118.635 29.2107 119.207 29.262 119.749 29.262C120.571 29.262 121.157 29.1887 121.509 29.042C121.861 28.8953 122.037 28.6093 122.037 28.184C122.037 27.876 121.927 27.634 121.707 27.458C121.502 27.282 121.187 27.1207 120.761 26.974C120.351 26.8273 119.823 26.6513 119.177 26.446C118.561 26.2407 118.026 26.0207 117.571 25.786C117.117 25.5367 116.765 25.2213 116.515 24.84C116.266 24.4587 116.141 23.96 116.141 23.344C116.141 22.3907 116.486 21.6573 117.175 21.144C117.865 20.616 118.972 20.352 120.497 20.352C121.099 20.352 121.671 20.396 122.213 20.484C122.756 20.572 123.218 20.682 123.599 20.814V22.816C123.189 22.6547 122.734 22.53 122.235 22.442C121.751 22.354 121.297 22.31 120.871 22.31C120.109 22.31 119.529 22.376 119.133 22.508C118.752 22.64 118.561 22.904 118.561 23.3C118.561 23.7107 118.759 24.004 119.155 24.18C119.566 24.3413 120.219 24.5687 121.113 24.862C121.935 25.1113 122.587 25.3753 123.071 25.654C123.555 25.9327 123.9 26.27 124.105 26.666C124.325 27.0473 124.435 27.546 124.435 28.162C124.435 29.1887 124.061 29.9587 123.313 30.472C122.565 30.9707 121.48 31.22 120.057 31.22ZM131.714 31.22C129.94 31.22 128.598 30.78 127.688 29.9C126.794 29.02 126.346 27.634 126.346 25.742V22.552C126.346 21.3787 126.588 20.3447 127.072 19.45C127.556 18.5553 128.246 17.8587 129.14 17.36C130.035 16.8613 131.098 16.612 132.33 16.612C133.049 16.612 133.672 16.656 134.2 16.744C134.743 16.832 135.242 16.9567 135.696 17.118V19.164C135.242 19.0027 134.75 18.878 134.222 18.79C133.709 18.702 133.13 18.658 132.484 18.658C131.164 18.658 130.189 18.9733 129.558 19.604C128.928 20.22 128.612 21.0487 128.612 22.09V22.97C129.126 22.5887 129.712 22.31 130.372 22.134C131.047 21.9433 131.656 21.848 132.198 21.848C133.856 21.848 135.08 22.2513 135.872 23.058C136.664 23.8647 137.06 25.0087 137.06 26.49C137.06 27.898 136.628 29.042 135.762 29.922C134.897 30.7873 133.548 31.22 131.714 31.22ZM131.736 29.416C132.792 29.416 133.584 29.1593 134.112 28.646C134.64 28.1327 134.904 27.4433 134.904 26.578C134.904 25.6687 134.684 24.9647 134.244 24.466C133.819 23.9527 133.02 23.696 131.846 23.696C131.26 23.696 130.68 23.7987 130.108 24.004C129.551 24.1947 129.052 24.4513 128.612 24.774V26.292C128.612 28.3747 129.654 29.416 131.736 29.416ZM141.246 31V18.944L138.958 19.34V17.338L143.622 16.612V31H141.246Z" fill="black"/>
<path d="M32.6987 9.40095C32.962 9.40209 33.2193 9.47945 33.4396 9.62368C33.6608 9.77402 33.834 9.98503 33.9383 10.2314L38.2381 20.2497C38.3138 20.4254 38.351 20.6153 38.347 20.8065V20.8186C38.347 22.3167 37.7519 23.7533 36.6927 24.8126C35.6334 25.8719 34.1967 26.4669 32.6987 26.4669C31.2007 26.4669 29.764 25.8719 28.7048 24.8126C27.6455 23.7533 27.0504 22.3167 27.0504 20.8186V20.8065C27.0464 20.6153 27.0836 20.4254 27.1594 20.2497L30.6626 12.0859H24.3994V30.3358L33.885 34.2676C34.172 34.3862 34.4089 34.6006 34.5554 34.8744C34.7019 35.1482 34.7488 35.4643 34.6883 35.7688C34.6277 36.0733 34.4634 36.3474 34.2233 36.5443C33.9832 36.7411 33.6823 36.8486 33.3718 36.8484H12.8364C12.5259 36.8486 12.225 36.7411 11.9849 36.5443C11.7448 36.3474 11.5805 36.0733 11.5199 35.7688C11.4594 35.4643 11.5063 35.1482 11.6528 34.8744C11.7993 34.6006 12.0362 34.3862 12.3231 34.2676L21.7168 30.3745V12.0859H15.3374L18.8406 20.2497C18.9164 20.4254 18.9535 20.6153 18.9496 20.8065V20.8186C18.9496 22.3167 18.3545 23.7533 17.2952 24.8126C16.2359 25.8719 14.7993 26.4669 13.3013 26.4669C11.8032 26.4669 10.3666 25.8719 9.30729 24.8126C8.24802 23.7533 7.65294 22.3167 7.65294 20.8186V20.8065C7.64898 20.6153 7.68613 20.4254 7.76188 20.2497L12.0617 10.2314C12.1647 9.98489 12.3382 9.77432 12.5604 9.62611C12.7799 9.47985 13.0375 9.40154 13.3013 9.40095H21.7168V7.75463C21.7168 7.39891 21.8581 7.05775 22.1097 6.80622C22.3612 6.55468 22.7024 6.41337 23.0581 6.41337C23.4138 6.41337 23.755 6.55468 24.0065 6.80622C24.258 7.05775 24.3994 7.39891 24.3994 7.75463V9.40095H32.6987ZM16.1654 20.8211L13.3013 14.1462L10.4396 20.8186L16.1654 20.8211ZM35.5628 20.8211L32.6987 14.1486L29.8346 20.8211H35.5628Z" fill="#F7F7F7"/>
</svg>
