<svg width="22" height="22" viewBox="0 0 22 22" fill="none" xmlns="http://www.w3.org/2000/svg">
<path fill-rule="evenodd" clip-rule="evenodd" d="M3.06367 0.75L6.81459 0.75C7.12696 0.75 7.40662 0.943609 7.51659 1.23599L8.97202 5.10588C9.0202 5.23398 9.03241 5.37281 9.00733 5.50735L8.27804 9.41931C9.17441 11.5273 10.655 12.9439 13.1107 14.2146L16.9756 13.4657C17.1128 13.4391 17.2548 13.4514 17.3854 13.5012L21.2671 14.9804C21.5579 15.0912 21.7501 15.37 21.7501 15.6812L21.7501 19.2655C21.7501 20.891 20.3179 22.2101 18.6426 21.8456C15.589 21.1811 9.93174 19.4923 5.96974 15.5303C2.17461 11.7352 0.903061 6.49252 0.475026 3.65869C0.230792 2.04172 1.5276 0.75 3.06367 0.75ZM6.29537 2.25L3.06367 2.25C2.34465 2.25 1.86564 2.82183 1.9582 3.43467C2.37098 6.16748 3.5786 11.0179 7.0304 14.4697C10.6788 18.1181 15.9826 19.7317 18.9615 20.3799C19.6158 20.5222 20.2501 20.024 20.2501 19.2655L20.2501 16.198L17.0511 14.979L13.1428 15.7363C12.9801 15.7678 12.8117 15.7446 12.6636 15.6703C9.76939 14.2176 7.89045 12.4954 6.80372 9.77854C6.75093 9.64656 6.73673 9.50229 6.76278 9.36255L7.49439 5.4381L6.29537 2.25Z" fill="#33836E"/>
</svg>
